<svg xmlns="http://www.w3.org/2000/svg" xmlns:xlink="http://www.w3.org/1999/xlink" viewBox="0 0 37.82 43.59"><defs><style>.cls-1{fill:none;}.cls-2{fill:#fff;}.cls-3{fill:#375bd2;}.cls-4{isolation:isolate;}.cls-5{clip-path:url(#clip-path);}.cls-6{fill:#0b152d;}</style><clipPath id="clip-path"><polygon class="cls-1" points="2.44 29.69 2.48 16.85 16.33 24.85 16.29 37.69 2.44 29.69"/></clipPath></defs><g id="Layer_2" data-name="Layer 2"><g id="Layer_1-2" data-name="Layer 1"><polygon class="cls-2" points="0.26 11.03 18.91 0.26 37.56 11.03 37.56 32.56 18.91 43.33 0.26 32.56 0.26 11.03"/><path class="cls-3" d="M18.91,43.59a.31.31,0,0,1-.13,0L.13,32.79A.26.26,0,0,1,0,32.56V11a.28.28,0,0,1,.13-.23L18.78,0A.24.24,0,0,1,19,0L37.69,10.8a.28.28,0,0,1,.13.23V32.56a.26.26,0,0,1-.13.23L19,43.56A.28.28,0,0,1,18.91,43.59ZM.52,32.41,18.91,43,37.3,32.41V11.18L18.91.56.52,11.18Z"/><polyline class="cls-2" points="0.26 11.03 18.91 21.8 37.56 11.03"/><path class="cls-3" d="M18.91,22.06a.22.22,0,0,1-.13,0L.13,11.26l.26-.46L18.91,21.49,37.43,10.8l.26.46L19,22A.2.2,0,0,1,18.91,22.06Z"/><rect class="cls-3" x="18.65" y="21.8" width="0.52" height="21.53"/><g class="cls-4"><g class="cls-5"><polyline class="cls-6" points="3.71 17.69 2.47 17.86 2.47 18.16 3.7 19.75 3.86 19.55 2.85 18.22 3.87 18.07 3.71 17.69"/><polyline class="cls-6" points="6.63 19.38 6.47 19.58 7.5 20.9 6.47 21.05 6.63 21.44 7.86 21.27 7.86 20.97 6.63 19.38"/><polyline class="cls-6" points="5.66 18.69 4.42 20.1 4.67 20.44 5.91 19.03 5.66 18.69"/><polyline class="cls-6" points="3.68 28.21 2.44 28.38 2.44 28.68 3.67 30.27 3.83 30.07 2.81 28.74 3.84 28.6 3.68 28.21"/><polyline class="cls-6" points="6.61 29.9 6.44 30.1 7.46 31.43 6.44 31.57 6.6 31.96 7.83 31.79 7.83 31.49 6.61 29.9"/><polyline class="cls-6" points="5.63 29.21 4.39 30.62 4.64 30.96 5.88 29.55 5.63 29.21"/><polyline class="cls-6" points="11.84 25.8 2.47 20.38 2.46 20.88 11.84 26.29 11.84 25.8"/><polyline class="cls-6" points="16.31 31.06 2.46 23.06 2.46 23.56 16.31 31.56 16.31 31.06"/><polyline class="cls-6" points="9.58 28.48 2.46 24.36 2.45 24.85 9.58 28.97 9.58 28.48"/><polyline class="cls-6" points="11.82 31 2.45 25.6 2.45 26.09 11.82 31.5 11.82 31"/><polyline class="cls-6" points="15.58 29.34 2.46 21.78 2.46 22.27 15.58 29.84 15.58 29.34"/></g></g><path class="cls-3" d="M28.24,23.54l2.74.23v3.62l-2.74,3.4-2.73-.23V26.94l2.73-3.4m0-2.66-1,1.25-2.73,3.4-1,1.25v6.28l1,.09,2.73.22,1,.08,1-1.25L32,28.81l1-1.25V21.27l-1-.08L29.24,21l-1-.09Z"/><path class="cls-6" d="M14.33,5.49a3.43,3.43,0,0,1,3.19,0c.86.5.78,1.06.4,1.42l-.75-.23c.23-.21.31-.54-.23-.85a2.07,2.07,0,0,0-2,0c-.66.38-.56.86-.06,1.15a2,2,0,0,0,1.5.14l.4.42a3.15,3.15,0,0,1-2.49-.22C13.45,6.84,13.35,6.06,14.33,5.49Z"/><path class="cls-6" d="M18.27,9.55l1.28-.74L18.2,8l-1.28.74-.6-.35L19.4,6.63,20,7l-1.24.72,1.35.78,1.24-.71.61.35L18.88,9.9Z"/><path class="cls-6" d="M22.14,11l-1.26-.73-1,.26-.64-.37L23.56,9l.7.41L22.35,11.9l-.65-.38ZM21.63,10l.86.49.74-.92Z"/><path class="cls-6" d="M22.75,12.13l3.09-1.78.61.35-3.09,1.79Z"/><path class="cls-6" d="M26.09,14.06,26.86,12l-2.18,1.26-.61-.35,3.09-1.78.75.44-.75,1.92,2-1.18.61.35-3.09,1.78Z"/><path class="cls-6" d="M8,9.35,11.1,7.57l.61.35L9.19,9.37l1.39.8L10,10.5Z"/><path class="cls-6" d="M10.47,10.76,13.55,9l.62.36-3.09,1.78Z"/><path class="cls-6" d="M13.8,12.69l.78-2.08-2.19,1.27-.6-.35,3.08-1.79.76.44-.75,1.92,2-1.17.6.34-3.08,1.79Z"/><path class="cls-6" d="M17.41,13.3l-.8,0-.86.49-.61-.34,3.09-1.79.6.35-1.39.81,2.64-.09.79.46-2.57.06L17.79,15,17,14.56Z"/></g></g></svg>